<svg width="500" height="200" xmlns="http://www.w3.org/2000/svg"><path fill="#FFF" stroke="null" id="svg_3" d="M208.696 55.065c-1.27 0-2.306 1.022-2.306 2.27V72.99h-23.307V57.334c0-1.246-1.038-2.27-2.305-2.27-1.21 0-2.25 1.023-2.25 2.27v35.743c0 1.247 1.04 2.27 2.25 2.27 1.267 0 2.305-1.023 2.305-2.27V77.193h23.307v15.884c0 1.247 1.037 2.27 2.306 2.27 1.213 0 2.25-1.023 2.25-2.27V57.334c0-1.247-1.037-2.27-2.25-2.27zm26.088.284H219.67c-1.213 0-2.252 1.02-2.252 2.267v35.46c0 1.247 1.04 2.27 2.253 2.27 1.268 0 2.31-1.023 2.31-2.27V79.633h11.595l11.363 14.518c.52.682 1.214 1.196 2.138 1.196 1.15 0 2.305-1.023 2.305-2.214 0-.623-.287-1.133-.75-1.645l-10.038-12.71c6.29-1.19 10.79-4.99 10.79-11.516v-.113c0-3.12-1.154-5.897-3.116-7.828-2.54-2.496-6.522-3.97-11.482-3.97zm9.976 12.083c0 5.105-4.322 8.17-10.38 8.17h-12.4V59.49h12.46c6.516 0 10.32 2.952 10.32 7.828v.115zm36.564-12.084H253.29c-1.157 0-2.132.962-2.132 2.098 0 1.133.975 2.04 2.133 2.04H265v33.59c0 1.246 1.036 2.27 2.31 2.27 1.27 0 2.305-1.024 2.305-2.27v-33.59h11.71c1.155 0 2.137-.907 2.137-2.04 0-1.136-.98-2.1-2.138-2.1zM207.37 8.93c-2.48 0-4.44 1.93-4.44 4.37v11.686h-16.384V13.3c0-2.44-1.96-4.37-4.443-4.37-2.48 0-4.44 1.93-4.44 4.37v31.656c0 2.44 1.96 4.368 4.44 4.368 2.482 0 4.443-1.928 4.443-4.368V33.04h16.383v11.916c0 2.44 1.96 4.368 4.44 4.368 2.485 0 4.444-1.928 4.444-4.368V13.3c0-2.44-1.96-4.37-4.445-4.37zm11.435 35.856c4.5 3.176 9.865 4.765 15.17 4.765 8.712 0 14.827-4.42 14.827-12.31v-.115c0-6.92-4.617-9.813-12.808-11.912-6.98-1.758-8.71-2.61-8.71-5.22v-.112c0-1.928 1.788-3.46 5.19-3.46 2.77 0 5.537.963 8.48 2.665.69.397 1.386.628 2.25.628 2.306 0 4.156-1.76 4.156-4.03 0-1.703-.98-2.894-1.962-3.46-3.632-2.27-7.904-3.517-12.808-3.517-8.248 0-14.133 4.764-14.133 11.97v.113c0 7.887 5.247 10.097 13.383 12.14 6.75 1.7 8.134 2.837 8.134 5.05v.114c0 2.326-2.19 3.74-5.823 3.74-3.925 0-7.273-1.357-10.327-3.572-.577-.398-1.382-.793-2.538-.793-2.308 0-4.155 1.757-4.155 4.03 0 1.36.694 2.608 1.675 3.286zm39.733 4.197h20.886c2.252 0 4.04-1.76 4.04-3.97 0-2.214-1.788-3.97-4.04-3.97H262.98V13.3c0-2.44-1.96-4.37-4.442-4.37-2.48 0-4.44 1.93-4.44 4.37v31.313c0 2.442 1.96 4.37 4.44 4.37zM95.686 44.345c-.24 0-4.667.052-8.054 3.15l-6.75-16.174c4.688-.086 7.89-3.2 8.064-3.373 4.13-4.072 4.756-9.356 1.482-12.572-3.276-3.222-8.662-2.603-12.805 1.472-.168.17-3.258 3.27-3.43 7.8l-16.38-6.73c3.24-3.322 3.267-7.733 3.267-7.973C61.08 4.182 57.72 0 53.09 0c-4.637 0-8 4.182-8 9.944 0 .237.054 4.587 3.203 7.92L31.856 24.49c-.1-4.596-3.256-7.738-3.43-7.908-4.143-4.075-9.53-4.692-12.805-1.473-3.278 3.22-2.645 8.516 1.5 12.588.172.17 3.332 3.214 7.96 3.374l-6.857 16.116c-3.378-3.18-7.865-3.21-8.11-3.208C4.252 43.98 0 47.284 0 51.842c0 4.554 4.254 7.86 10.112 7.86.243 0 4.665-.05 8.055-3.152l6.75 16.18c-4.69.087-7.894 3.2-8.064 3.37-4.13 4.072-4.756 9.357-1.486 12.574 3.28 3.222 8.664 2.602 12.806-1.472.174-.168 3.26-3.27 3.436-7.802l16.37 6.734c-3.236 3.318-3.263 7.733-3.263 7.972 0 5.764 3.36 9.942 7.993 9.942 4.632 0 7.998-4.18 7.998-9.942 0-.24-.05-4.587-3.202-7.918l16.436-6.632c.098 4.6 3.254 7.74 3.43 7.91 4.144 4.075 9.53 4.693 12.805 1.47 3.276-3.22 2.643-8.515-1.5-12.59-.17-.165-3.333-3.212-7.958-3.375l6.854-16.11c3.378 3.18 7.866 3.208 8.11 3.208 5.86 0 10.113-3.305 10.113-7.86 0-4.557-4.254-7.863-10.11-7.863zM10.103 55.18c-3.19-.002-5.505-1.404-5.505-3.337 0-1.94 2.33-3.34 5.524-3.34.18 0 4.1.078 6.024 3.37-1.967 3.187-5.82 3.3-6.043 3.308zm70.78-35.144c2.255-2.213 4.903-2.83 6.293-1.464 1.392 1.368.765 3.97-1.494 6.188-.127.126-2.964 2.8-6.702 1.794-.887-3.606 1.747-6.358 1.902-6.518zM53.087 4.52c1.964 0 3.393 2.29 3.393 5.433 0 .178-.08 4.027-3.427 5.92-3.244-1.928-3.36-5.717-3.364-5.938.004-3.14 1.427-5.415 3.398-5.415zM20.362 24.495c-2.252-2.218-2.878-4.82-1.492-6.185 1.396-1.365 4.052-.743 6.31 1.48.127.122 2.84 2.905 1.836 6.573-3.68.882-6.49-1.713-6.654-1.868zm4.556 59.517c-2.262 2.212-4.905 2.83-6.297 1.464-1.39-1.367-.765-3.973 1.495-6.192.13-.123 2.963-2.8 6.7-1.794.887 3.612-1.744 6.36-1.897 6.522zM52.71 99.524c-1.963 0-3.394-2.288-3.394-5.43 0-.176.083-4.03 3.428-5.922 3.245 1.932 3.362 5.72 3.364 5.943-.002 3.133-1.426 5.41-3.397 5.41zM85.433 79.55c2.253 2.222 2.883 4.823 1.49 6.19-1.393 1.365-4.045.743-6.302-1.48-.128-.126-2.844-2.906-1.838-6.574 3.68-.885 6.488 1.71 6.65 1.864zm-10.198-5.403L52.782 83.2l-22.36-9.193-9.22-22.096 9.362-22.01 22.452-9.056 22.36 9.196 9.22 22.098-9.362 22.01zM95.677 55.55c-.178-.003-4.102-.085-6.025-3.373 1.965-3.19 5.82-3.306 6.042-3.31 3.192.004 5.505 1.41 5.505 3.34-.002 1.935-2.33 3.342-5.523 3.342zM132.123 0c-1.272 0-2.362 1.02-2.362 2.268v99.51c0 1.252 1.092 2.27 2.363 2.27 1.332 0 2.42-1.018 2.42-2.27V2.268c0-1.248-1.088-2.268-2.42-2.268zm9.564 0c-1.272 0-2.36 1.02-2.36 2.268v99.51c0 1.252 1.088 2.27 2.36 2.27 1.33 0 2.42-1.018 2.42-2.27V2.268c0-1.248-1.09-2.268-2.42-2.268z"/></svg>