<?xml version="1.0"?>
<svg width="283" height="104" xmlns="http://www.w3.org/2000/svg" xmlns:svg="http://www.w3.org/2000/svg">
	<g>
		<path fill="#FFFFFF" stroke="null" id="svg_3" d="m208.696014,55.065002c-1.268997,0 -2.306,1.022003 -2.306,2.268997l0,15.656006l-23.307007,0l0,-15.656006c0,-1.245987 -1.037994,-2.268997 -2.304993,-2.268997c-1.210999,0 -2.25,1.022003 -2.25,2.268997l0,35.743011c0,1.246994 1.039001,2.269989 2.25,2.269989c1.266998,0 2.304993,-1.022995 2.304993,-2.269989l0,-15.884003l23.307007,0l0,15.884003c0,1.246994 1.037003,2.269989 2.306,2.269989c1.212997,0 2.251007,-1.022995 2.251007,-2.269989l0,-35.743011c0,-1.246994 -1.03801,-2.268997 -2.251007,-2.268997zm26.087997,0.283997l-15.112991,0c-1.214005,0 -2.253006,1.020004 -2.253006,2.26799l0,35.460007c0,1.246994 1.039001,2.270004 2.253006,2.270004c1.266998,0 2.307999,-1.02301 2.307999,-2.270004l0,-13.444l11.595993,0l11.363007,14.518005c0.520996,0.681 1.213989,1.194992 2.138,1.194992c1.151001,0 2.304993,-1.022995 2.304993,-2.213989c0,-0.623001 -0.287994,-1.133011 -0.750992,-1.645004l-10.03801,-12.709c6.290009,-1.190002 10.789001,-4.992004 10.789001,-11.516998l0,-0.113998c0,-3.12001 -1.153,-5.897003 -3.11499,-7.828003c-2.541,-2.494995 -6.522003,-3.970001 -11.48201,-3.970001zm9.975998,12.084015c0,5.104996 -4.321991,8.169998 -10.378998,8.169998l-12.401993,0l0,-16.112991l12.460999,0c6.515991,0 10.320999,2.951996 10.320999,7.828003l0,0.11499l-0.001007,0zm36.563995,-12.084015l-28.033005,0c-1.15799,0 -2.132996,0.962997 -2.132996,2.098999c0,1.132996 0.975006,2.041 2.132996,2.041l11.709,0l0,33.587997c0,1.246994 1.036011,2.270004 2.309998,2.270004c1.269012,0 2.304993,-1.02301 2.304993,-2.270004l0,-33.587997l11.709015,0c1.156006,0 2.138,-0.908005 2.138,-2.041c0,-1.135986 -0.980988,-2.098999 -2.138,-2.098999zm-73.954987,-46.419991c-2.477997,0 -4.440002,1.931 -4.440002,4.369995l0,11.687004l-16.382996,0l0,-11.687004c0,-2.438995 -1.961014,-4.369995 -4.442993,-4.369995c-2.479019,0 -4.44101,1.931 -4.44101,4.369995l0,31.657005c0,2.440002 1.962006,4.367996 4.44101,4.367996c2.481995,0 4.442993,-1.927994 4.442993,-4.367996l0,-11.915001l16.382996,0l0,11.915001c0,2.440002 1.962006,4.367996 4.440002,4.367996c2.485992,0 4.444992,-1.927994 4.444992,-4.367996l0,-31.657005c0,-2.438995 -1.959,-4.369995 -4.444992,-4.369995zm11.435989,35.857002c4.498993,3.175995 9.86499,4.764999 15.17099,4.764999c8.711014,0 14.826004,-4.421997 14.826004,-12.312004l0,-0.113998c0,-6.920998 -4.617004,-9.813004 -12.807999,-11.912003c-6.981003,-1.757996 -8.710999,-2.611 -8.710999,-5.219002l0,-0.112999c0,-1.929001 1.789001,-3.459999 5.192001,-3.459999c2.768005,0 5.535995,0.961998 8.479004,2.664001c0.690994,0.397003 1.386002,0.627998 2.250992,0.627998c2.305008,0 4.154999,-1.761002 4.154999,-4.029999c0,-1.703003 -0.981003,-2.893997 -1.96199,-3.459c-3.632004,-2.271004 -7.904007,-3.517998 -12.807999,-3.517998c-8.248001,0 -14.133011,4.764 -14.133011,11.971001l0,0.112c0,7.888 5.247009,10.098 13.383011,12.141998c6.750992,1.699997 8.133987,2.835999 8.133987,5.048996l0,0.114006c0,2.326004 -2.190002,3.740997 -5.822998,3.740997c-3.925995,0 -7.274002,-1.358002 -10.328003,-3.572998c-0.576996,-0.398003 -1.381989,-0.792999 -2.537994,-0.792999c-2.307999,0 -4.154999,1.757996 -4.154999,4.029999c0.000015,1.360992 0.694016,2.608994 1.675003,3.287003zm39.733017,4.196991l20.885986,0c2.252014,0 4.040009,-1.759995 4.040009,-3.970001c0,-2.213989 -1.787994,-3.968994 -4.040009,-3.968994l-16.442993,0l0,-27.744003c0,-2.438995 -1.960999,-4.369995 -4.442993,-4.369995c-2.479004,0 -4.440994,1.931 -4.440994,4.369995l0,31.313004c0.000977,2.442001 1.96199,4.369995 4.440994,4.369995zm-162.85202,-4.638c-0.240982,0 -4.666992,0.052002 -8.053986,3.149002l-6.75,-16.173004c4.687988,-0.087006 7.890991,-3.202003 8.063995,-3.374001c4.128998,-4.071999 4.755981,-9.356003 1.481995,-12.571999c-3.276001,-3.222 -8.661987,-2.603004 -12.804993,1.472c-0.167999,0.168999 -3.257996,3.268997 -3.429993,7.800995l-16.378998,-6.731987c3.238983,-3.321014 3.265991,-7.732002 3.265991,-7.972015c0,-5.761993 -3.360992,-9.943993 -7.990997,-9.943993c-4.636017,0 -8,4.181999 -8,9.943993c0,0.237007 0.054993,4.587006 3.20401,7.919014l-16.437012,6.626991c-0.098999,-4.596001 -3.256012,-7.737991 -3.431,-7.908005c-4.141998,-4.074989 -9.528015,-4.691986 -12.804016,-1.473c-3.278992,3.222015 -2.645996,8.517014 1.498016,12.589005c0.173004,0.170998 3.333008,3.213997 7.959991,3.374001l-6.855988,16.116005c-3.378021,-3.181 -7.865021,-3.209 -8.111023,-3.208008c-5.857971,0 -10.112,3.304001 -10.112,7.862c0,4.554001 4.254028,7.860001 10.112,7.860001c0.243011,0 4.665009,-0.050995 8.055023,-3.151993l6.75,16.179001c-4.690002,0.087997 -7.894012,3.201996 -8.063995,3.369995c-4.131012,4.072998 -4.756012,9.358002 -1.486023,12.574997c3.279022,3.222 8.664001,2.602005 12.806,-1.472c0.174011,-0.167999 3.26001,-3.270996 3.436005,-7.802002l16.372009,6.734009c-3.237,3.317993 -3.264008,7.732986 -3.264008,7.972c0,5.763992 3.360992,9.942001 7.993011,9.942001c4.631989,0 7.997986,-4.179001 7.997986,-9.942001c0,-0.238998 -0.049988,-4.58699 -3.201996,-7.917999l16.436005,-6.632004c0.097992,4.599991 3.253998,7.73999 3.429993,7.910004c4.144012,4.074997 9.528992,4.692993 12.804993,1.470993c3.276001,-3.220001 2.643005,-8.516006 -1.5,-12.590988c-0.169983,-0.165009 -3.332977,-3.212006 -7.957977,-3.375l6.85498,-16.112c3.378021,3.181992 7.866013,3.209 8.111008,3.209c5.858002,0 10.112,-3.305008 10.112,-7.861008c0,-4.556 -4.253998,-7.862 -10.111008,-7.862zm-85.582977,10.835999c-3.189026,-0.003006 -5.505005,-1.404999 -5.505005,-3.337997c0,-1.940002 2.329987,-3.341003 5.523987,-3.341003c0.179016,0 4.098999,0.078995 6.024017,3.371002c-1.96701,3.187012 -5.821014,3.299011 -6.042999,3.307999zm70.778992,-35.144997c2.255981,-2.212997 4.903992,-2.829994 6.294006,-1.463997c1.391998,1.368004 0.764984,3.970001 -1.494019,6.188004c-0.126984,0.125999 -2.963989,2.799995 -6.701996,1.793999c-0.886993,-3.606003 1.747009,-6.358002 1.902008,-6.518005zm-27.794006,-15.515999c1.963989,0 3.393005,2.291 3.393005,5.432999c-0.002014,0.178001 -0.080994,4.027 -3.428009,5.920006c-3.243988,-1.928001 -3.358978,-5.717003 -3.363983,-5.938004c0.005005,-3.139999 1.427979,-5.415001 3.398987,-5.415001zm-32.725983,19.974998c-2.252014,-2.217995 -2.878021,-4.820999 -1.492004,-6.184998c1.395996,-1.364998 4.052002,-0.742996 6.309998,1.479004c0.126984,0.122993 2.841003,2.905998 1.835999,6.573997c-3.679016,0.881996 -6.490021,-1.712997 -6.653992,-1.868004zm4.555969,59.517006c-2.261993,2.21199 -4.904999,2.830994 -6.296997,1.464005c-1.389984,-1.367004 -0.765991,-3.973007 1.494019,-6.192001c0.128998,-0.123001 2.962982,-2.799011 6.699982,-1.794006c0.887024,3.612 -1.743988,6.358994 -1.897003,6.522003zm27.792999,15.511993c-1.963989,0 -3.394989,-2.287994 -3.394989,-5.429001c0,-0.177002 0.083008,-4.030991 3.428009,-5.922989c3.244995,1.931992 3.362,5.720993 3.363983,5.942993c-0.001984,3.132996 -1.425995,5.408997 -3.397003,5.408997zm32.721008,-19.973999c2.252991,2.222 2.882996,4.822998 1.48999,6.190002c-1.392975,1.365005 -4.044983,0.742996 -6.302002,-1.481003c-0.127991,-0.125 -2.843964,-2.904999 -1.837982,-6.572998c3.681,-0.884995 6.488007,1.710999 6.649994,1.863998zm-10.197998,-5.403l-22.451996,9.054001l-22.359985,-9.194l-9.221008,-22.095993l9.363007,-22.011002l22.451996,-9.056l22.359009,9.195999l9.220978,22.097992l-9.362,22.009003zm20.443008,-18.597992c-0.177994,-0.001999 -4.102005,-0.084 -6.025009,-3.372009c1.964996,-3.190002 5.820007,-3.306 6.042007,-3.310989c3.192001,0.005005 5.50499,1.411987 5.50499,3.341003c-0.000992,1.934998 -2.327988,3.341995 -5.521988,3.341995zm36.445999,-55.549004c-1.272003,0 -2.362,1.019997 -2.362,2.267998l0,99.509995c0,1.251999 1.091003,2.270004 2.362,2.270004c1.332001,0 2.421005,-1.018005 2.421005,-2.270004l0,-99.509995c0,-1.248001 -1.089005,-2.267998 -2.421005,-2.267998zm9.563995,0c-1.272003,0 -2.360001,1.019997 -2.360001,2.267998l0,99.509995c0,1.251999 1.087997,2.270004 2.360001,2.270004c1.330002,0 2.421005,-1.018005 2.421005,-2.270004l0,-99.509995c0,-1.248001 -1.089996,-2.267998 -2.421005,-2.267998z" />
 	</g>
</svg>
